{
	"asset":{
		"generator":"Khronos glTF Blender I/O v3.6.27",
		"version":"2.0"
	},
	"scene":0,
	"scenes":[
		{
			"name":"Scene",
			"nodes":[
				0,
				1,
				2,
				3,
				4,
				5,
				6,
				7,
				8,
				9,
				10,
				11,
				12,
				13,
				14,
				15,
				16,
				17,
				18,
				19
			]
		}
	],
	"nodes":[
		{
			"mesh":0,
			"name":"Plane"
		},
		{
			"mesh":1,
			"name":"Cube"
		},
		{
			"mesh":2,
			"name":"Sphere",
			"scale":[
				0.23347938060760498,
				0.23347938060760498,
				0.23347938060760498
			],
			"translation":[
				0,
				0,
				-0.9925937652587891
			]
		},
		{
			"mesh":3,
			"name":"Sphere.001",
			"scale":[
				0.23347938060760498,
				0.23347938060760498,
				0.23347938060760498
			],
			"translation":[
				-0.4148070216178894,
				0.6261199712753296,
				-0.8082234859466553
			]
		},
		{
			"mesh":4,
			"name":"Sphere.002",
			"scale":[
				0.23347938060760498,
				0.23347938060760498,
				0.23347938060760498
			],
			"translation":[
				0.853477418422699,
				0.2683368921279907,
				-0.5306612253189087
			]
		},
		{
			"mesh":5,
			"name":"Sphere.003",
			"scale":[
				0.23347938060760498,
				0.23347938060760498,
				0.23347938060760498
			],
			"translation":[
				0.10044990479946136,
				1.091233491897583,
				-0.4003487229347229
			]
		},
		{
			"mesh":6,
			"name":"Sphere.004",
			"scale":[
				0.23347938060760498,
				0.23347938060760498,
				0.23347938060760498
			],
			"translation":[
				0.6091521978378296,
				-0.33390313386917114,
				-0.8520805239677429
			]
		},
		{
			"mesh":7,
			"name":"Sphere.005",
			"scale":[
				0.34783264994621277,
				0.34783264994621277,
				0.34783264994621277
			],
			"translation":[
				0.9031485915184021,
				-0.33390313386917114,
				0.3651297688484192
			]
		},
		{
			"mesh":8,
			"name":"Sphere.006",
			"scale":[
				0.24331830441951752,
				0.24331830441951752,
				0.24331830441951752
			],
			"translation":[
				0.9412916302680969,
				0.5103042125701904,
				0.0316598117351532
			]
		},
		{
			"mesh":9,
			"name":"Sphere.007",
			"scale":[
				0.3451092839241028,
				0.3451092839241028,
				0.3451092839241028
			],
			"translation":[
				0.71647047996521,
				0.8473898768424988,
				0.5569005012512207
			]
		},
		{
			"mesh":10,
			"name":"Sphere.008",
			"scale":[
				0.1713075041770935,
				0.1713075041770935,
				0.1713075041770935
			],
			"translation":[
				-0.4305937886238098,
				0.978133499622345,
				0.20959889888763428
			]
		},
		{
			"mesh":11,
			"name":"Sphere.009",
			"scale":[
				0.1713075041770935,
				0.1713075041770935,
				0.1713075041770935
			],
			"translation":[
				-0.9418099522590637,
				-0.2523655295372009,
				-0.718357264995575
			]
		},
		{
			"mesh":12,
			"name":"Sphere.010",
			"scale":[
				0.304936945438385,
				0.304936945438385,
				0.304936945438385
			],
			"translation":[
				-0.8421921133995056,
				0.21000784635543823,
				-0.2048015594482422
			]
		},
		{
			"mesh":13,
			"name":"Sphere.011",
			"scale":[
				0.14093980193138123,
				0.14093980193138123,
				0.14093980193138123
			],
			"translation":[
				-0.9758688807487488,
				-0.4406408965587616,
				0.1462729424238205
			]
		},
		{
			"mesh":14,
			"name":"Sphere.012",
			"scale":[
				0.4315577745437622,
				0.4315577745437622,
				0.4315577745437622
			],
			"translation":[
				-0.9758688807487488,
				0.7244464159011841,
				0.7297412753105164
			]
		},
		{
			"mesh":15,
			"name":"Sphere.013",
			"scale":[
				0.22415460646152496,
				0.22415460646152496,
				0.22415460646152496
			],
			"translation":[
				-0.42769312858581543,
				-0.25892341136932373,
				0.8833446502685547
			]
		},
		{
			"mesh":16,
			"name":"Sphere.014",
			"scale":[
				0.3626217842102051,
				0.3626217842102051,
				0.3626217842102051
			],
			"translation":[
				0.4241572618484497,
				0.3496231436729431,
				0.8833446502685547
			]
		},
		{
			"mesh":17,
			"name":"Sphere.015",
			"scale":[
				0.3862862288951874,
				0.3862862288951874,
				0.3862862288951874
			],
			"translation":[
				0.24723142385482788,
				-0.9577845931053162,
				-0.3620586395263672
			]
		},
		{
			"mesh":18,
			"name":"Sphere.016",
			"scale":[
				0.17719264328479767,
				0.17719264328479767,
				0.17719264328479767
			],
			"translation":[
				-0.5286253690719604,
				-0.8606935143470764,
				0.10223430395126343
			]
		},
		{
			"mesh":19,
			"name":"Sphere.017",
			"scale":[
				0.27243363857269287,
				0.27243363857269287,
				0.27243363857269287
			],
			"translation":[
				0.3778054714202881,
				-0.9500066637992859,
				0.549958348274231
			]
		}
	],
	"materials":[
		{
			"doubleSided":true,
			"name":"Cheese",
			"pbrMetallicRoughness":{
				"baseColorFactor":[
					0.8000000715255737,
					0.4577796161174774,
					0.04656312242150307,
					1
				],
				"metallicFactor":0,
				"roughnessFactor":0.5
			}
		},
		{
			"doubleSided":true,
			"name":"Material",
			"pbrMetallicRoughness":{
				"baseColorTexture":{
					"index":0
				},
				"metallicFactor":0,
				"roughnessFactor":0.5
			}
		}
	],
	"meshes":[
		{
			"name":"Plane",
			"primitives":[
				{
					"attributes":{
						"POSITION":0,
						"NORMAL":1,
						"TEXCOORD_0":2
					},
					"indices":3,
					"material":0
				}
			]
		},
		{
			"name":"Cube.001",
			"primitives":[
				{
					"attributes":{
						"POSITION":4,
						"NORMAL":5,
						"TEXCOORD_0":6
					},
					"indices":7,
					"material":1
				}
			]
		},
		{
			"name":"Sphere",
			"primitives":[
				{
					"attributes":{
						"POSITION":8,
						"NORMAL":9,
						"TEXCOORD_0":10
					},
					"indices":11
				}
			]
		},
		{
			"name":"Sphere.001",
			"primitives":[
				{
					"attributes":{
						"POSITION":12,
						"NORMAL":13,
						"TEXCOORD_0":14
					},
					"indices":11
				}
			]
		},
		{
			"name":"Sphere.002",
			"primitives":[
				{
					"attributes":{
						"POSITION":15,
						"NORMAL":16,
						"TEXCOORD_0":17
					},
					"indices":11
				}
			]
		},
		{
			"name":"Sphere.003",
			"primitives":[
				{
					"attributes":{
						"POSITION":18,
						"NORMAL":19,
						"TEXCOORD_0":20
					},
					"indices":11
				}
			]
		},
		{
			"name":"Sphere.004",
			"primitives":[
				{
					"attributes":{
						"POSITION":21,
						"NORMAL":22,
						"TEXCOORD_0":23
					},
					"indices":11
				}
			]
		},
		{
			"name":"Sphere.005",
			"primitives":[
				{
					"attributes":{
						"POSITION":24,
						"NORMAL":25,
						"TEXCOORD_0":26
					},
					"indices":11
				}
			]
		},
		{
			"name":"Sphere.006",
			"primitives":[
				{
					"attributes":{
						"POSITION":27,
						"NORMAL":28,
						"TEXCOORD_0":29
					},
					"indices":11
				}
			]
		},
		{
			"name":"Sphere.007",
			"primitives":[
				{
					"attributes":{
						"POSITION":30,
						"NORMAL":31,
						"TEXCOORD_0":32
					},
					"indices":11
				}
			]
		},
		{
			"name":"Sphere.008",
			"primitives":[
				{
					"attributes":{
						"POSITION":33,
						"NORMAL":34,
						"TEXCOORD_0":35
					},
					"indices":11
				}
			]
		},
		{
			"name":"Sphere.009",
			"primitives":[
				{
					"attributes":{
						"POSITION":36,
						"NORMAL":37,
						"TEXCOORD_0":38
					},
					"indices":11
				}
			]
		},
		{
			"name":"Sphere.010",
			"primitives":[
				{
					"attributes":{
						"POSITION":39,
						"NORMAL":40,
						"TEXCOORD_0":41
					},
					"indices":11
				}
			]
		},
		{
			"name":"Sphere.011",
			"primitives":[
				{
					"attributes":{
						"POSITION":42,
						"NORMAL":43,
						"TEXCOORD_0":44
					},
					"indices":11
				}
			]
		},
		{
			"name":"Sphere.012",
			"primitives":[
				{
					"attributes":{
						"POSITION":45,
						"NORMAL":46,
						"TEXCOORD_0":47
					},
					"indices":11
				}
			]
		},
		{
			"name":"Sphere.013",
			"primitives":[
				{
					"attributes":{
						"POSITION":48,
						"NORMAL":49,
						"TEXCOORD_0":50
					},
					"indices":11
				}
			]
		},
		{
			"name":"Sphere.014",
			"primitives":[
				{
					"attributes":{
						"POSITION":51,
						"NORMAL":52,
						"TEXCOORD_0":53
					},
					"indices":11
				}
			]
		},
		{
			"name":"Sphere.015",
			"primitives":[
				{
					"attributes":{
						"POSITION":54,
						"NORMAL":55,
						"TEXCOORD_0":56
					},
					"indices":11
				}
			]
		},
		{
			"name":"Sphere.016",
			"primitives":[
				{
					"attributes":{
						"POSITION":57,
						"NORMAL":58,
						"TEXCOORD_0":59
					},
					"indices":11
				}
			]
		},
		{
			"name":"Sphere.017",
			"primitives":[
				{
					"attributes":{
						"POSITION":60,
						"NORMAL":61,
						"TEXCOORD_0":62
					},
					"indices":11
				}
			]
		}
	],
	"textures":[
		{
			"sampler":0,
			"source":0
		}
	],
	"images":[
		{
			"mimeType":"image/jpeg",
			"name":"cheese",
			"uri":"cheese.jpg"
		}
	],
	"accessors":[
		{
			"bufferView":0,
			"componentType":5126,
			"count":4,
			"max":[
				1,
				0,
				1
			],
			"min":[
				-1,
				0,
				-1
			],
			"type":"VEC3"
		},
		{
			"bufferView":1,
			"componentType":5126,
			"count":4,
			"type":"VEC3"
		},
		{
			"bufferView":2,
			"componentType":5126,
			"count":4,
			"type":"VEC2"
		},
		{
			"bufferView":3,
			"componentType":5123,
			"count":6,
			"type":"SCALAR"
		},
		{
			"bufferView":4,
			"componentType":5126,
			"count":24,
			"max":[
				1,
				1,
				1
			],
			"min":[
				-1,
				-1,
				-1
			],
			"type":"VEC3"
		},
		{
			"bufferView":5,
			"componentType":5126,
			"count":24,
			"type":"VEC3"
		},
		{
			"bufferView":6,
			"componentType":5126,
			"count":24,
			"type":"VEC2"
		},
		{
			"bufferView":7,
			"componentType":5123,
			"count":36,
			"type":"SCALAR"
		},
		{
			"bufferView":8,
			"componentType":5126,
			"count":559,
			"max":[
				0.9999997019767761,
				1,
				0.9999993443489075
			],
			"min":[
				-0.9999990463256836,
				-1,
				-1
			],
			"type":"VEC3"
		},
		{
			"bufferView":9,
			"componentType":5126,
			"count":559,
			"type":"VEC3"
		},
		{
			"bufferView":10,
			"componentType":5126,
			"count":559,
			"type":"VEC2"
		},
		{
			"bufferView":11,
			"componentType":5123,
			"count":2880,
			"type":"SCALAR"
		},
		{
			"bufferView":12,
			"componentType":5126,
			"count":559,
			"max":[
				0.9999997019767761,
				1,
				0.9999993443489075
			],
			"min":[
				-0.9999990463256836,
				-1,
				-1
			],
			"type":"VEC3"
		},
		{
			"bufferView":13,
			"componentType":5126,
			"count":559,
			"type":"VEC3"
		},
		{
			"bufferView":14,
			"componentType":5126,
			"count":559,
			"type":"VEC2"
		},
		{
			"bufferView":15,
			"componentType":5126,
			"count":559,
			"max":[
				0.9999997019767761,
				1,
				0.9999993443489075
			],
			"min":[
				-0.9999990463256836,
				-1,
				-1
			],
			"type":"VEC3"
		},
		{
			"bufferView":16,
			"componentType":5126,
			"count":559,
			"type":"VEC3"
		},
		{
			"bufferView":17,
			"componentType":5126,
			"count":559,
			"type":"VEC2"
		},
		{
			"bufferView":18,
			"componentType":5126,
			"count":559,
			"max":[
				0.9999997019767761,
				1,
				0.9999993443489075
			],
			"min":[
				-0.9999990463256836,
				-1,
				-1
			],
			"type":"VEC3"
		},
		{
			"bufferView":19,
			"componentType":5126,
			"count":559,
			"type":"VEC3"
		},
		{
			"bufferView":20,
			"componentType":5126,
			"count":559,
			"type":"VEC2"
		},
		{
			"bufferView":21,
			"componentType":5126,
			"count":559,
			"max":[
				0.9999997019767761,
				1,
				0.9999993443489075
			],
			"min":[
				-0.9999990463256836,
				-1,
				-1
			],
			"type":"VEC3"
		},
		{
			"bufferView":22,
			"componentType":5126,
			"count":559,
			"type":"VEC3"
		},
		{
			"bufferView":23,
			"componentType":5126,
			"count":559,
			"type":"VEC2"
		},
		{
			"bufferView":24,
			"componentType":5126,
			"count":559,
			"max":[
				0.9999997019767761,
				1,
				0.9999993443489075
			],
			"min":[
				-0.9999990463256836,
				-1,
				-1
			],
			"type":"VEC3"
		},
		{
			"bufferView":25,
			"componentType":5126,
			"count":559,
			"type":"VEC3"
		},
		{
			"bufferView":26,
			"componentType":5126,
			"count":559,
			"type":"VEC2"
		},
		{
			"bufferView":27,
			"componentType":5126,
			"count":559,
			"max":[
				0.9999997019767761,
				1,
				0.9999993443489075
			],
			"min":[
				-0.9999990463256836,
				-1,
				-1
			],
			"type":"VEC3"
		},
		{
			"bufferView":28,
			"componentType":5126,
			"count":559,
			"type":"VEC3"
		},
		{
			"bufferView":29,
			"componentType":5126,
			"count":559,
			"type":"VEC2"
		},
		{
			"bufferView":30,
			"componentType":5126,
			"count":559,
			"max":[
				0.9999997019767761,
				1,
				0.9999993443489075
			],
			"min":[
				-0.9999990463256836,
				-1,
				-1
			],
			"type":"VEC3"
		},
		{
			"bufferView":31,
			"componentType":5126,
			"count":559,
			"type":"VEC3"
		},
		{
			"bufferView":32,
			"componentType":5126,
			"count":559,
			"type":"VEC2"
		},
		{
			"bufferView":33,
			"componentType":5126,
			"count":559,
			"max":[
				0.9999997019767761,
				1,
				0.9999993443489075
			],
			"min":[
				-0.9999990463256836,
				-1,
				-1
			],
			"type":"VEC3"
		},
		{
			"bufferView":34,
			"componentType":5126,
			"count":559,
			"type":"VEC3"
		},
		{
			"bufferView":35,
			"componentType":5126,
			"count":559,
			"type":"VEC2"
		},
		{
			"bufferView":36,
			"componentType":5126,
			"count":559,
			"max":[
				0.9999997019767761,
				1,
				0.9999993443489075
			],
			"min":[
				-0.9999990463256836,
				-1,
				-1
			],
			"type":"VEC3"
		},
		{
			"bufferView":37,
			"componentType":5126,
			"count":559,
			"type":"VEC3"
		},
		{
			"bufferView":38,
			"componentType":5126,
			"count":559,
			"type":"VEC2"
		},
		{
			"bufferView":39,
			"componentType":5126,
			"count":559,
			"max":[
				0.9999997019767761,
				1,
				0.9999993443489075
			],
			"min":[
				-0.9999990463256836,
				-1,
				-1
			],
			"type":"VEC3"
		},
		{
			"bufferView":40,
			"componentType":5126,
			"count":559,
			"type":"VEC3"
		},
		{
			"bufferView":41,
			"componentType":5126,
			"count":559,
			"type":"VEC2"
		},
		{
			"bufferView":42,
			"componentType":5126,
			"count":559,
			"max":[
				0.9999997019767761,
				1,
				0.9999993443489075
			],
			"min":[
				-0.9999990463256836,
				-1,
				-1
			],
			"type":"VEC3"
		},
		{
			"bufferView":43,
			"componentType":5126,
			"count":559,
			"type":"VEC3"
		},
		{
			"bufferView":44,
			"componentType":5126,
			"count":559,
			"type":"VEC2"
		},
		{
			"bufferView":45,
			"componentType":5126,
			"count":559,
			"max":[
				0.9999997019767761,
				1,
				0.9999993443489075
			],
			"min":[
				-0.9999990463256836,
				-1,
				-1
			],
			"type":"VEC3"
		},
		{
			"bufferView":46,
			"componentType":5126,
			"count":559,
			"type":"VEC3"
		},
		{
			"bufferView":47,
			"componentType":5126,
			"count":559,
			"type":"VEC2"
		},
		{
			"bufferView":48,
			"componentType":5126,
			"count":559,
			"max":[
				0.9999997019767761,
				1,
				0.9999993443489075
			],
			"min":[
				-0.9999990463256836,
				-1,
				-1
			],
			"type":"VEC3"
		},
		{
			"bufferView":49,
			"componentType":5126,
			"count":559,
			"type":"VEC3"
		},
		{
			"bufferView":50,
			"componentType":5126,
			"count":559,
			"type":"VEC2"
		},
		{
			"bufferView":51,
			"componentType":5126,
			"count":559,
			"max":[
				0.9999997019767761,
				1,
				0.9999993443489075
			],
			"min":[
				-0.9999990463256836,
				-1,
				-1
			],
			"type":"VEC3"
		},
		{
			"bufferView":52,
			"componentType":5126,
			"count":559,
			"type":"VEC3"
		},
		{
			"bufferView":53,
			"componentType":5126,
			"count":559,
			"type":"VEC2"
		},
		{
			"bufferView":54,
			"componentType":5126,
			"count":559,
			"max":[
				0.9999997019767761,
				1,
				0.9999993443489075
			],
			"min":[
				-0.9999990463256836,
				-1,
				-1
			],
			"type":"VEC3"
		},
		{
			"bufferView":55,
			"componentType":5126,
			"count":559,
			"type":"VEC3"
		},
		{
			"bufferView":56,
			"componentType":5126,
			"count":559,
			"type":"VEC2"
		},
		{
			"bufferView":57,
			"componentType":5126,
			"count":559,
			"max":[
				0.9999997019767761,
				1,
				0.9999993443489075
			],
			"min":[
				-0.9999990463256836,
				-1,
				-1
			],
			"type":"VEC3"
		},
		{
			"bufferView":58,
			"componentType":5126,
			"count":559,
			"type":"VEC3"
		},
		{
			"bufferView":59,
			"componentType":5126,
			"count":559,
			"type":"VEC2"
		},
		{
			"bufferView":60,
			"componentType":5126,
			"count":559,
			"max":[
				0.9999997019767761,
				1,
				0.9999993443489075
			],
			"min":[
				-0.9999990463256836,
				-1,
				-1
			],
			"type":"VEC3"
		},
		{
			"bufferView":61,
			"componentType":5126,
			"count":559,
			"type":"VEC3"
		},
		{
			"bufferView":62,
			"componentType":5126,
			"count":559,
			"type":"VEC2"
		}
	],
	"bufferViews":[
		{
			"buffer":0,
			"byteLength":48,
			"byteOffset":0,
			"target":34962
		},
		{
			"buffer":0,
			"byteLength":48,
			"byteOffset":48,
			"target":34962
		},
		{
			"buffer":0,
			"byteLength":32,
			"byteOffset":96,
			"target":34962
		},
		{
			"buffer":0,
			"byteLength":12,
			"byteOffset":128,
			"target":34963
		},
		{
			"buffer":0,
			"byteLength":288,
			"byteOffset":140,
			"target":34962
		},
		{
			"buffer":0,
			"byteLength":288,
			"byteOffset":428,
			"target":34962
		},
		{
			"buffer":0,
			"byteLength":192,
			"byteOffset":716,
			"target":34962
		},
		{
			"buffer":0,
			"byteLength":72,
			"byteOffset":908,
			"target":34963
		},
		{
			"buffer":0,
			"byteLength":6708,
			"byteOffset":980,
			"target":34962
		},
		{
			"buffer":0,
			"byteLength":6708,
			"byteOffset":7688,
			"target":34962
		},
		{
			"buffer":0,
			"byteLength":4472,
			"byteOffset":14396,
			"target":34962
		},
		{
			"buffer":0,
			"byteLength":5760,
			"byteOffset":18868,
			"target":34963
		},
		{
			"buffer":0,
			"byteLength":6708,
			"byteOffset":24628,
			"target":34962
		},
		{
			"buffer":0,
			"byteLength":6708,
			"byteOffset":31336,
			"target":34962
		},
		{
			"buffer":0,
			"byteLength":4472,
			"byteOffset":38044,
			"target":34962
		},
		{
			"buffer":0,
			"byteLength":6708,
			"byteOffset":42516,
			"target":34962
		},
		{
			"buffer":0,
			"byteLength":6708,
			"byteOffset":49224,
			"target":34962
		},
		{
			"buffer":0,
			"byteLength":4472,
			"byteOffset":55932,
			"target":34962
		},
		{
			"buffer":0,
			"byteLength":6708,
			"byteOffset":60404,
			"target":34962
		},
		{
			"buffer":0,
			"byteLength":6708,
			"byteOffset":67112,
			"target":34962
		},
		{
			"buffer":0,
			"byteLength":4472,
			"byteOffset":73820,
			"target":34962
		},
		{
			"buffer":0,
			"byteLength":6708,
			"byteOffset":78292,
			"target":34962
		},
		{
			"buffer":0,
			"byteLength":6708,
			"byteOffset":85000,
			"target":34962
		},
		{
			"buffer":0,
			"byteLength":4472,
			"byteOffset":91708,
			"target":34962
		},
		{
			"buffer":0,
			"byteLength":6708,
			"byteOffset":96180,
			"target":34962
		},
		{
			"buffer":0,
			"byteLength":6708,
			"byteOffset":102888,
			"target":34962
		},
		{
			"buffer":0,
			"byteLength":4472,
			"byteOffset":109596,
			"target":34962
		},
		{
			"buffer":0,
			"byteLength":6708,
			"byteOffset":114068,
			"target":34962
		},
		{
			"buffer":0,
			"byteLength":6708,
			"byteOffset":120776,
			"target":34962
		},
		{
			"buffer":0,
			"byteLength":4472,
			"byteOffset":127484,
			"target":34962
		},
		{
			"buffer":0,
			"byteLength":6708,
			"byteOffset":131956,
			"target":34962
		},
		{
			"buffer":0,
			"byteLength":6708,
			"byteOffset":138664,
			"target":34962
		},
		{
			"buffer":0,
			"byteLength":4472,
			"byteOffset":145372,
			"target":34962
		},
		{
			"buffer":0,
			"byteLength":6708,
			"byteOffset":149844,
			"target":34962
		},
		{
			"buffer":0,
			"byteLength":6708,
			"byteOffset":156552,
			"target":34962
		},
		{
			"buffer":0,
			"byteLength":4472,
			"byteOffset":163260,
			"target":34962
		},
		{
			"buffer":0,
			"byteLength":6708,
			"byteOffset":167732,
			"target":34962
		},
		{
			"buffer":0,
			"byteLength":6708,
			"byteOffset":174440,
			"target":34962
		},
		{
			"buffer":0,
			"byteLength":4472,
			"byteOffset":181148,
			"target":34962
		},
		{
			"buffer":0,
			"byteLength":6708,
			"byteOffset":185620,
			"target":34962
		},
		{
			"buffer":0,
			"byteLength":6708,
			"byteOffset":192328,
			"target":34962
		},
		{
			"buffer":0,
			"byteLength":4472,
			"byteOffset":199036,
			"target":34962
		},
		{
			"buffer":0,
			"byteLength":6708,
			"byteOffset":203508,
			"target":34962
		},
		{
			"buffer":0,
			"byteLength":6708,
			"byteOffset":210216,
			"target":34962
		},
		{
			"buffer":0,
			"byteLength":4472,
			"byteOffset":216924,
			"target":34962
		},
		{
			"buffer":0,
			"byteLength":6708,
			"byteOffset":221396,
			"target":34962
		},
		{
			"buffer":0,
			"byteLength":6708,
			"byteOffset":228104,
			"target":34962
		},
		{
			"buffer":0,
			"byteLength":4472,
			"byteOffset":234812,
			"target":34962
		},
		{
			"buffer":0,
			"byteLength":6708,
			"byteOffset":239284,
			"target":34962
		},
		{
			"buffer":0,
			"byteLength":6708,
			"byteOffset":245992,
			"target":34962
		},
		{
			"buffer":0,
			"byteLength":4472,
			"byteOffset":252700,
			"target":34962
		},
		{
			"buffer":0,
			"byteLength":6708,
			"byteOffset":257172,
			"target":34962
		},
		{
			"buffer":0,
			"byteLength":6708,
			"byteOffset":263880,
			"target":34962
		},
		{
			"buffer":0,
			"byteLength":4472,
			"byteOffset":270588,
			"target":34962
		},
		{
			"buffer":0,
			"byteLength":6708,
			"byteOffset":275060,
			"target":34962
		},
		{
			"buffer":0,
			"byteLength":6708,
			"byteOffset":281768,
			"target":34962
		},
		{
			"buffer":0,
			"byteLength":4472,
			"byteOffset":288476,
			"target":34962
		},
		{
			"buffer":0,
			"byteLength":6708,
			"byteOffset":292948,
			"target":34962
		},
		{
			"buffer":0,
			"byteLength":6708,
			"byteOffset":299656,
			"target":34962
		},
		{
			"buffer":0,
			"byteLength":4472,
			"byteOffset":306364,
			"target":34962
		},
		{
			"buffer":0,
			"byteLength":6708,
			"byteOffset":310836,
			"target":34962
		},
		{
			"buffer":0,
			"byteLength":6708,
			"byteOffset":317544,
			"target":34962
		},
		{
			"buffer":0,
			"byteLength":4472,
			"byteOffset":324252,
			"target":34962
		}
	],
	"samplers":[
		{
			"magFilter":9729,
			"minFilter":9987
		}
	],
	"buffers":[
		{
			"byteLength":328724,
			"uri":"cheese.bin"
		}
	]
}
