# Blender 3.6.2
# www.blender.org
mtllib cube.mtl
o cube
v -0.500000 -0.500000 -0.500000
v -0.500000 -0.500000 0.500000
v -0.500000 0.500000 -0.500000
v -0.500000 0.500000 0.500000
v 0.500000 -0.500000 -0.500000
v 0.500000 -0.500000 0.500000
v 0.500000 0.500000 -0.500000
v 0.500000 0.500000 0.500000
vn -0.0000 -0.0000 -1.0000
vn -1.0000 -0.0000 -0.0000
vn -0.0000 1.0000 -0.0000
vn 1.0000 -0.0000 -0.0000
vn -0.0000 -1.0000 -0.0000
vn -0.0000 -0.0000 1.0000
vt 0.000000 0.000000
vt 1.000000 1.000000
vt 1.000000 0.000000
vt 0.000000 1.000000
s 0
usemtl Texture
f 1/1/1 7/2/1 5/3/1
f 1/1/1 3/4/1 7/2/1
f 1/1/2 4/2/2 3/3/2
f 1/1/2 2/4/2 4/2/2
f 3/1/3 8/2/3 7/3/3
f 3/1/3 4/4/3 8/2/3
f 5/1/4 7/3/4 8/2/4
f 5/1/4 8/2/4 6/4/4
f 1/1/5 5/3/5 6/2/5
f 1/1/5 6/2/5 2/4/5
f 2/1/6 6/3/6 8/2/6
f 2/1/6 8/2/6 4/4/6
