<svg xmlns="http://www.w3.org/2000/svg" xmlns:svg="http://www.w3.org/2000/svg" id="svg1" width="512" height="640" version="1.1" viewBox="0 0 135.467 169.333" xml:space="preserve"><defs id="defs1"><rect id="rect2" width="513.489" height="140.126" x="-3.688" y="650.849"/><rect id="rect37" width="70.764" height="78.495" x="-90.388" y="421.017"/><filter id="selectable_hidder_filter" width="1.134" height="1.138" x="-.067" y="-.069" style="color-interpolation-filters:sRGB"><feComposite id="boolops_hidder_primitive" in="BackgroundImage" in2="SourceGraphic" k1="0" k2="0" k3="0" k4="0" operator="arithmetic" result="composite1"/></filter><linearGradient id="swatch22"><stop style="stop-color:#fff;stop-opacity:1" id="stop22" offset="0"/></linearGradient><filter id="selectable_hidder_filter-3" width="1" height="1" x="0" y="0" style="color-interpolation-filters:sRGB"><feComposite id="boolops_hidder_primitive-5" in="BackgroundImage" in2="SourceGraphic" k1="0" k2="0" k3="0" k4="0" operator="arithmetic" result="composite1"/></filter></defs><rect style="display:inline;fill:#353535;fill-opacity:1;stroke:none;stroke-width:.989915" id="rect1" width="135.467" height="169.333" x="0" y="0"/><g id="g1" transform="scale(0.26458333)"><rect style="display:inline;fill:#353535;fill-opacity:1;stroke:none;stroke-width:5.15344;stroke-opacity:1" id="rect11" width="924.043" height="942.504" x="-56.743" y="-414.328" transform="matrix(0.55101402,0,0,0.54027972,32.685991,225.24491)"/><ellipse style="display:inline;fill:none;fill-opacity:1;fill-rule:nonzero;stroke:#2bbae6;stroke-width:15.5151;stroke-dasharray:none;stroke-opacity:1" id="circle3" cx="256" cy="256" rx="248.242" ry="248.242"/><g id="layer1-8" style="display:inline;fill:#2bbae6;fill-opacity:1;stroke:none"><circle style="display:inline;fill:#2bbae6;fill-opacity:1;stroke:none;stroke-width:8;stroke-dasharray:none;stroke-opacity:1" id="path1-2" cx="256" cy="256" r="160"/><path style="fill:none;fill-opacity:1;fill-rule:nonzero;stroke:#f0f0f0;stroke-width:12.0198;stroke-linecap:round;stroke-linejoin:bevel;stroke-dasharray:none;stroke-opacity:1;paint-order:normal" id="path60" d="m 528.84299,54.605509 a 208.21503,74.182625 0 0 1 6.54316,84.625731 208.21503,74.182625 0 0 1 -220.32499,31.70406" transform="matrix(0.84666108,0.53213251,-0.59892143,0.80080779,0,0)"/><g id="g78" transform="matrix(0.38917624,-0.38693387,0.39012725,0.37712564,32.685991,225.24491)" style="display:inline;fill:#2bbae6;fill-opacity:1;stroke:#f0f0f0;stroke-opacity:1"><ellipse style="fill:#2bbae6;fill-opacity:1;fill-rule:nonzero;stroke:#f0f0f0;stroke-width:7.75797;stroke-linecap:round;stroke-linejoin:miter;stroke-dasharray:none;stroke-opacity:1;paint-order:normal" id="ellipse74" cx="64" cy="116" rx="60.121" ry="112.121"/><path style="fill:#2bbae6;fill-opacity:1;fill-rule:nonzero;stroke:#f0f0f0;stroke-width:5.24692;stroke-linecap:round;stroke-linejoin:miter;stroke-dasharray:none;stroke-opacity:1;paint-order:normal" id="path74" d="m -212.59001,111.94004 c 4.09489,0 22.52187,31.91648 20.47443,35.46276 -2.04744,3.54627 -38.90142,3.54627 -40.94886,0 -2.04745,-3.54628 16.37954,-35.46276 20.47443,-35.46276 z" transform="matrix(1.5351109,0,0,1.5143652,439.72264,18.679519)"/><path style="fill:#2bbae6;fill-opacity:1;fill-rule:nonzero;stroke:#f0f0f0;stroke-width:5.271;stroke-linecap:round;stroke-linejoin:miter;stroke-dasharray:none;stroke-opacity:1;paint-order:normal" id="path75" d="m -212.59001,111.94004 c 4.09489,0 22.52187,31.91648 20.47443,35.46276 -2.04744,3.54627 -38.90142,3.54627 -40.94886,0 -2.04745,-3.54628 16.37954,-35.46276 20.47443,-35.46276 z" transform="matrix(1.5317418,0,0,1.5038639,339.53689,19.904749)"/><path style="fill:#2bbae6;fill-opacity:1;fill-rule:nonzero;stroke:#f0f0f0;stroke-width:5.271;stroke-linecap:round;stroke-linejoin:miter;stroke-dasharray:none;stroke-opacity:1;paint-order:normal" id="path15" d="m -212.59001,111.94004 c 4.09489,0 22.52187,31.91648 20.47443,35.46276 -2.04744,3.54627 -38.90142,3.54627 -40.94886,0 -2.04745,-3.54628 16.37954,-35.46276 20.47443,-35.46276 z" transform="matrix(1.4970078,0.00196646,-0.01106694,2.13042,381.95588,-62.043015)"/><circle style="fill:#2bbae6;fill-opacity:1;fill-rule:nonzero;stroke:#f0f0f0;stroke-width:8.00001;stroke-linecap:round;stroke-linejoin:miter;stroke-dasharray:none;stroke-opacity:1;paint-order:normal" id="circle77" cx="64" cy="96" r="32"/><path style="fill:#f0f0f0;fill-opacity:1;stroke:#f0f0f0;stroke-width:8.00056;stroke-dasharray:none;stroke-opacity:1" id="path30" d="m -28.547611,-35.160034 a 36.670521,25.651562 0 0 1 -18.335261,22.214904 36.670521,25.651562 0 0 1 -36.670521,0 36.670521,25.651562 0 0 1 -18.335257,-22.214904 z" transform="matrix(-0.99999426,-0.00338763,0.02299038,-0.99973569,0,0)"/></g></g></g><text id="text1" transform="matrix(0.26458333,0,0,0.26458333,2.6636262,-35.529616)" xml:space="preserve" style="white-space:pre;shape-inside:url(#rect2);display:inline;fill:#f0f0f0;fill-opacity:1;stroke:none"><tspan id="tspan3" x="-3.688" y="760.948"><tspan style="font-stretch:semi-condensed;font-size:120px;font-family:'Lucida Console';-inkscape-font-specification:'Lucida Console, Semi-Condensed'" id="tspan1">Orbital</tspan></tspan></text></svg>